<?xml version="1.0" encoding="UTF-8"?>
<svg width="14px" height="14px" viewBox="0 0 14 14" version="1.1" xmlns="http://www.w3.org/2000/svg" xmlns:xlink="http://www.w3.org/1999/xlink">
    <title>check_off</title>
    <g id="Page-1" stroke="none" stroke-width="1" fill="none" fill-rule="evenodd">
        <g id="icon-/-check_off" transform="translate(-2.000000, -2.000000)" fill="#888888" fill-rule="nonzero">
            <g id="check_off" transform="translate(2.000000, 2.000000)">
                <path d="M4.4296875,10.5 L7,7.9296875 L9.5703125,10.5 L10.5,9.5703125 L7.9296875,7 L10.5,4.4296875 L9.5703125,3.5 L7,6.0703125 L4.4296875,3.5 L3.5,4.4296875 L6.0703125,7 L3.5,9.5703125 L4.4296875,10.5 Z M7,14 C6.03993056,14 5.13454861,13.8177083 4.28385417,13.453125 C3.43315972,13.0885417 2.68880208,12.5872396 2.05078125,11.9492188 C1.41276042,11.3111979 0.911458333,10.5668403 0.546875,9.71614583 C0.182291667,8.86545139 0,7.96006944 0,7 C0,6.02777778 0.182291667,5.11935764 0.546875,4.27473958 C0.911458333,3.43012153 1.41276042,2.68880208 2.05078125,2.05078125 C2.68880208,1.41276042 3.43315972,0.911458333 4.28385417,0.546875 C5.13454861,0.182291667 6.03993056,0 7,0 C7.97222222,0 8.88064236,0.182291667 9.72526042,0.546875 C10.5698785,0.911458333 11.3111979,1.41276042 11.9492188,2.05078125 C12.5872396,2.68880208 13.0885417,3.43012153 13.453125,4.27473958 C13.8177083,5.11935764 14,6.02777778 14,7 C14,7.96006944 13.8177083,8.86545139 13.453125,9.71614583 C13.0885417,10.5668403 12.5872396,11.3111979 11.9492188,11.9492188 C11.3111979,12.5872396 10.5698785,13.0885417 9.72526042,13.453125 C8.88064236,13.8177083 7.97222222,14 7,14 Z M7,12.6875 C8.57986111,12.6875 9.92274306,12.1345486 11.0286458,11.0286458 C12.1345486,9.92274306 12.6875,8.57986111 12.6875,7 C12.6875,5.42013889 12.1345486,4.07725694 11.0286458,2.97135417 C9.92274306,1.86545139 8.57986111,1.3125 7,1.3125 C5.42013889,1.3125 4.07725694,1.86545139 2.97135417,2.97135417 C1.86545139,4.07725694 1.3125,5.42013889 1.3125,7 C1.3125,8.57986111 1.86545139,9.92274306 2.97135417,11.0286458 C4.07725694,12.1345486 5.42013889,12.6875 7,12.6875 Z" id="Shape"></path>
            </g>
        </g>
    </g>
</svg>