<?xml version="1.0" encoding="UTF-8"?>
<svg width="16px" height="12px" viewBox="0 0 16 12" version="1.1" xmlns="http://www.w3.org/2000/svg" xmlns:xlink="http://www.w3.org/1999/xlink">
    <title>email</title>
    <g id="Page-1" stroke="none" stroke-width="1" fill="none" fill-rule="evenodd">
        <g id="footer-/-case3" transform="translate(-9.000000, -12.000000)" fill="#FFFFFF" fill-rule="nonzero">
            <g id="Group" transform="translate(9.000000, 11.000000)">
                <g id="email" transform="translate(0.000000, 1.000000)">
                    <path d="M1.5,12 C1.0875,12 0.734375,11.8530417 0.440625,11.559125 C0.146875,11.2652083 0,10.9118889 0,10.4991667 L0,1.49410417 C0,1.08136806 0.146875,0.729166667 0.440625,0.4375 C0.734375,0.145833333 1.0875,0 1.5,0 L14.5,0 C14.9125,0 15.265625,0.146958333 15.559375,0.440875 C15.853125,0.734791667 16,1.08811111 16,1.50083333 L16,10.5058958 C16,10.9186319 15.853125,11.2708333 15.559375,11.5625 C15.265625,11.8541667 14.9125,12 14.5,12 L1.5,12 Z M8,7 L1.5,3.27083333 L1.5,10.5 L14.5,10.5 L14.5,3.27083333 L8,7 Z M8,5.22916667 L14.5,1.5 L1.5,1.5 L8,5.22916667 Z M1.55625,3.27083333 L1.55625,1.5 L1.55625,10.5 L1.55625,3.27083333 Z" id="Shape"></path>
                </g>
            </g>
        </g>
    </g>
</svg>