<?xml version="1.0" encoding="UTF-8"?>
<svg width="12px" height="12px" viewBox="0 0 12 12" version="1.1" xmlns="http://www.w3.org/2000/svg" xmlns:xlink="http://www.w3.org/1999/xlink">
    <title>icons8-github(1)</title>
    <g id="Page-1" stroke="none" stroke-width="1" fill="none" fill-rule="evenodd">
        <g id="footer-/-case3" transform="translate(-149.000000, -7.000000)" fill="#FFFFFF" fill-rule="nonzero">
            <g id="icons8-github(1)" transform="translate(149.000000, 7.000000)">
                <path d="M6,0 C2.6865,0 0,2.6865 0,6 C0,8.8115 1.936,11.164 4.546,11.815 C4.518,11.734 4.5,11.64 4.5,11.5235 L4.5,10.498 C4.2565,10.498 3.8485,10.498 3.746,10.498 C3.3355,10.498 2.9705,10.3215 2.7935,9.9935 C2.597,9.629 2.563,9.0715 2.076,8.7305 C1.9315,8.617 2.0415,8.4875 2.208,8.505 C2.5155,8.592 2.7705,8.803 3.0105,9.116 C3.2495,9.4295 3.362,9.5005 3.8085,9.5005 C4.025,9.5005 4.349,9.488 4.654,9.44 C4.818,9.0235 5.1015,8.64 5.448,8.459 C3.45,8.2535 2.4965,7.2595 2.4965,5.91 C2.4965,5.329 2.744,4.767 3.1645,4.2935 C3.0265,3.8235 2.853,2.865 3.2175,2.5 C4.1165,2.5 4.66,3.083 4.7905,3.2405 C5.2385,3.087 5.7305,3 6.2475,3 C6.7655,3 7.2595,3.087 7.7085,3.2415 C7.8375,3.085 8.3815,2.5 9.2825,2.5 C9.6485,2.8655 9.473,3.828 9.3335,4.297 C9.7515,4.7695 9.9975,5.33 9.9975,5.91 C9.9975,7.2585 9.0455,8.252 7.0505,8.4585 C7.5995,8.745 8,9.55 8,10.1565 L8,11.5235 C8,11.5755 7.9885,11.613 7.9825,11.6575 C10.3205,10.838 12,8.618 12,6 C12,2.6865 9.3135,0 6,0 Z" id="Path"></path>
            </g>
        </g>
    </g>
</svg>