<?xml version="1.0" encoding="UTF-8"?>
<svg width="16px" height="16px" viewBox="0 0 16 16" version="1.1" xmlns="http://www.w3.org/2000/svg" xmlns:xlink="http://www.w3.org/1999/xlink">
    <title>github</title>
    <g id="Page-1" stroke="none" stroke-width="1" fill="none" fill-rule="evenodd">
        <g id="footer-/-case3" transform="translate(-214.000000, -10.000000)" fill="#FFFFFF" fill-rule="nonzero">
            <g id="github" transform="translate(214.000000, 10.000000)">
                <path d="M8,0 C3.582,0 0,3.582 0,8 C0,11.7486667 2.58133333,14.8853333 6.06133333,15.7533333 C6.024,15.6453333 6,15.52 6,15.3646667 L6,13.9973333 C5.67533333,13.9973333 5.13133333,13.9973333 4.99466667,13.9973333 C4.44733333,13.9973333 3.96066667,13.762 3.72466667,13.3246667 C3.46266667,12.8386667 3.41733333,12.0953333 2.768,11.6406667 C2.57533333,11.4893333 2.722,11.3166667 2.944,11.34 C3.354,11.456 3.694,11.7373333 4.014,12.1546667 C4.33266667,12.5726667 4.48266667,12.6673333 5.078,12.6673333 C5.36666667,12.6673333 5.79866667,12.6506667 6.20533333,12.5866667 C6.424,12.0313333 6.802,11.52 7.264,11.2786667 C4.6,11.0046667 3.32866667,9.67933333 3.32866667,7.88 C3.32866667,7.10533333 3.65866667,6.356 4.21933333,5.72466667 C4.03533333,5.098 3.804,3.82 4.29,3.33333333 C5.48866667,3.33333333 6.21333333,4.11066667 6.38733333,4.32066667 C6.98466667,4.116 7.64066667,4 8.33,4 C9.02066667,4 9.67933333,4.116 10.278,4.322 C10.45,4.11333333 11.1753333,3.33333333 12.3766667,3.33333333 C12.8646667,3.82066667 12.6306667,5.104 12.4446667,5.72933333 C13.002,6.35933333 13.33,7.10666667 13.33,7.88 C13.33,9.678 12.0606667,11.0026667 9.40066667,11.278 C10.1326667,11.66 10.6666667,12.7333333 10.6666667,13.542 L10.6666667,15.3646667 C10.6666667,15.434 10.6513333,15.484 10.6433333,15.5433333 C13.7606667,14.4506667 16,11.4906667 16,8 C16,3.582 12.418,0 8,0 Z" id="Path"></path>
            </g>
        </g>
    </g>
</svg>