<?xml version="1.0" encoding="UTF-8"?>
<svg width="18px" height="18px" viewBox="0 0 18 18" version="1.1" xmlns="http://www.w3.org/2000/svg" xmlns:xlink="http://www.w3.org/1999/xlink">
    <title>icon / info2</title>
    <g id="icon-/-info2" stroke="none" stroke-width="1" fill="none" fill-rule="evenodd">
        <circle id="Oval" fill="#909090" cx="9" cy="9" r="8"></circle>
        <g id="􀅴" transform="translate(7.054902, 4.231373)" fill="#FFFFFF" fill-rule="nonzero">
            <path d="M1.8745098,2.05490196 C2.44705882,2.05490196 2.89411765,1.6 2.89411765,1.02745098 C2.89411765,0.454901961 2.44705882,0 1.8745098,0 C1.30980392,0 0.854901961,0.454901961 0.854901961,1.02745098 C0.854901961,1.6 1.30980392,2.05490196 1.8745098,2.05490196 Z M0.57254902,9.16078431 L3.76470588,9.16078431 C4.08627451,9.16078431 4.3372549,8.9254902 4.3372549,8.60392157 C4.3372549,8.29803922 4.08627451,8.05490196 3.76470588,8.05490196 L2.79215686,8.05490196 L2.79215686,4.0627451 C2.79215686,3.63921569 2.58039216,3.35686275 2.18039216,3.35686275 L0.705882353,3.35686275 C0.384313725,3.35686275 0.133333333,3.6 0.133333333,3.90588235 C0.133333333,4.22745098 0.384313725,4.4627451 0.705882353,4.4627451 L1.54509804,4.4627451 L1.54509804,8.05490196 L0.57254902,8.05490196 C0.250980392,8.05490196 0,8.29803922 0,8.60392157 C0,8.9254902 0.250980392,9.16078431 0.57254902,9.16078431 Z" id="Shape"></path>
        </g>
    </g>
</svg>