<?xml version="1.0" encoding="UTF-8"?>
<svg width="13px" height="15px" viewBox="0 0 13 15" version="1.1" xmlns="http://www.w3.org/2000/svg" xmlns:xlink="http://www.w3.org/1999/xlink">
    <title>location_on_FILL0_wght400_GRAD0_opsz20</title>
    <g id="Page-1" stroke="none" stroke-width="1" fill="none" fill-rule="evenodd">
        <g id="ページ" transform="translate(-91.000000, -187.000000)" fill="#35948C" fill-rule="nonzero">
            <g id="location_on_FILL0_wght400_GRAD0_opsz20" transform="translate(91.500000, 187.000000)">
                <path d="M6.00407692,7.38461538 C6.38597436,7.38461538 6.71153846,7.24864103 6.98076923,6.97669231 C7.25,6.70473077 7.38461538,6.37780769 7.38461538,5.99592308 C7.38461538,5.61402564 7.24864103,5.28846154 6.97669231,5.01923077 C6.70473077,4.75 6.37780769,4.61538462 5.99592308,4.61538462 C5.61402564,4.61538462 5.28846154,4.75135897 5.01923077,5.02330769 C4.75,5.29526923 4.61538462,5.62219231 4.61538462,6.00407692 C4.61538462,6.38597436 4.75135897,6.71153846 5.02330769,6.98076923 C5.29526923,7.25 5.62219231,7.38461538 6.00407692,7.38461538 Z M6,12.9423077 C7.52564103,11.5705128 8.67628205,10.3076923 9.45192308,9.15384615 C10.2275641,8 10.6153846,6.96794872 10.6153846,6.05769231 C10.6153846,4.71153846 10.1762821,3.59615385 9.29807692,2.71153846 C8.41987179,1.82692308 7.32051282,1.38461538 6,1.38461538 C4.67948718,1.38461538 3.58012821,1.82692308 2.70192308,2.71153846 C1.82371795,3.59615385 1.38461538,4.71153846 1.38461538,6.05769231 C1.38461538,6.96794872 1.7724359,8 2.54807692,9.15384615 C3.32371795,10.3076923 4.47435897,11.5705128 6,12.9423077 Z M6,14.7692308 C3.9875,13.088359 2.48437179,11.5271154 1.49061538,10.0855 C0.496871795,8.64388462 0,7.30128205 0,6.05769231 C0,4.33974359 0.570512821,2.90064103 1.71153846,1.74038462 C2.8525641,0.580128205 4.27884615,0 5.99038462,0 C7.70192308,0 9.13141026,0.580128205 10.2788462,1.74038462 C11.4262821,2.90064103 12,4.33974359 12,6.05769231 C12,7.30128205 11.5064103,8.64102564 10.5192308,10.0769231 C9.53205128,11.5128205 8.02564103,13.0769231 6,14.7692308 Z" id="Shape"></path>
            </g>
        </g>
    </g>
</svg>