<?xml version="1.0" encoding="UTF-8"?>
<svg width="16px" height="13px" viewBox="0 0 16 13" version="1.1" xmlns="http://www.w3.org/2000/svg" xmlns:xlink="http://www.w3.org/1999/xlink">
    <title>x</title>
    <g id="Page-1" stroke="none" stroke-width="1" fill="none" fill-rule="evenodd">
        <g id="footer-/-case3" transform="translate(-105.000000, -11.000000)" fill="#FFFFFF" fill-rule="nonzero">
            <g id="x" transform="translate(105.000000, 11.000000)">
                <path d="M16,-3.55271368e-16 C15.376,0.3704 14.124,0.8752 13.388,1.0208 C13.3664,1.0264 13.3488,1.0336 13.328,1.0392 C12.6776,0.3976 11.7864,-3.55271368e-16 10.8,-3.55271368e-16 C8.812,-3.55271368e-16 7.2,1.612 7.2,3.6 C7.2,3.7048 7.1912,3.8976 7.2,4 C4.5176,4 2.476,2.5952 1.012,0.8 C0.8528,1.2 0.7832,1.832 0.7832,2.4256 C0.7832,3.5464 1.6592,4.6472 3.0232,5.3296 C2.772,5.3944 2.4952,5.4408 2.2072,5.4408 C1.7424,5.4408 1.2504,5.3184 0.8,4.9472 C0.8,4.9608 0.8,4.9736 0.8,4.988 C0.8,6.5544 2.4624,7.6208 3.9408,7.9176 C3.6408,8.0944 3.036,8.112 2.7408,8.112 C2.5328,8.112 1.7968,8.0168 1.6,7.98 C2.0112,9.264 3.4944,9.9856 4.908,10.0112 C3.8024,10.8784 3.0352,11.2 0.7712,11.2 L0,11.2 C1.4304,12.1168 3.252,12.8008 5.0776,12.8008 C11.0216,12.8008 14.4,8.2704 14.4,4 C14.4,3.9312 14.3984,3.7872 14.396,3.6424 C14.396,3.628 14.4,3.6144 14.4,3.6 C14.4,3.5784 14.3936,3.5576 14.3936,3.536 C14.3912,3.4272 14.3888,3.3256 14.3864,3.2728 C15.0184,2.8168 15.5664,2.248 16,1.6 C15.42,1.8576 14.7976,2.0304 14.144,2.1088 C14.8112,1.7088 15.7592,0.7552 16,-3.55271368e-16 Z" id="Path"></path>
            </g>
        </g>
    </g>
</svg>