<?xml version="1.0" encoding="UTF-8"?>
<svg width="12px" height="10px" viewBox="0 0 12 10" version="1.1" xmlns="http://www.w3.org/2000/svg" xmlns:xlink="http://www.w3.org/1999/xlink">
    <title>icons8-ツイッター</title>
    <g id="Page-1" stroke="none" stroke-width="1" fill="none" fill-rule="evenodd">
        <g id="footer-/-case3" transform="translate(-72.000000, -8.000000)" fill="#FFFFFF" fill-rule="nonzero">
            <g id="icons8-ツイッター" transform="translate(72.000000, 8.000000)">
                <path d="M12,-2.66453526e-16 C11.532,0.2778 10.593,0.6564 10.041,0.7656 C10.0248,0.7698 10.0116,0.7752 9.996,0.7794 C9.5082,0.2982 8.8398,-2.66453526e-16 8.1,-2.66453526e-16 C6.609,-2.66453526e-16 5.4,1.209 5.4,2.7 C5.4,2.7786 5.3934,2.9232 5.4,3 C3.3882,3 1.857,1.9464 0.759,0.6 C0.6396,0.9 0.5874,1.374 0.5874,1.8192 C0.5874,2.6598 1.2444,3.4854 2.2674,3.9972 C2.079,4.0458 1.8714,4.0806 1.6554,4.0806 C1.3068,4.0806 0.9378,3.9888 0.6,3.7104 C0.6,3.7206 0.6,3.7302 0.6,3.741 C0.6,4.9158 1.8468,5.7156 2.9556,5.9382 C2.7306,6.0708 2.277,6.084 2.0556,6.084 C1.8996,6.084 1.3476,6.0126 1.2,5.985 C1.5084,6.948 2.6208,7.4892 3.681,7.5084 C2.8518,8.1588 2.2764,8.4 0.5784,8.4 L0,8.4 C1.0728,9.0876 2.439,9.6006 3.8082,9.6006 C8.2662,9.6006 10.8,6.2028 10.8,3 C10.8,2.9484 10.7988,2.8404 10.797,2.7318 C10.797,2.721 10.8,2.7108 10.8,2.7 C10.8,2.6838 10.7952,2.6682 10.7952,2.652 C10.7934,2.5704 10.7916,2.4942 10.7898,2.4546 C11.2638,2.1126 11.6748,1.686 12,1.2 C11.565,1.3932 11.0982,1.5228 10.608,1.5816 C11.1084,1.2816 11.8194,0.5664 12,-2.66453526e-16 Z" id="Path"></path>
            </g>
        </g>
    </g>
</svg>